<mxfile host="app.diagrams.net" modified="2023-05-24T15:24:46.698Z" agent="Mozilla/5.0 (Windows NT 10.0; Win64; x64) AppleWebKit/537.36 (KHTML, like Gecko) Chrome/109.0.0.0 Safari/537.36" etag="0jwCQKQ54YqTd3JcNYn6" version="21.3.2" type="device" pages="2">
  <diagram id="Ldd0GLixUq3H-ijgGFIa" name="STARTER">
    <mxGraphModel dx="1562" dy="758" grid="1" gridSize="10" guides="1" tooltips="1" connect="1" arrows="1" fold="1" page="1" pageScale="1" pageWidth="827" pageHeight="1169" math="0" shadow="0">
      <root>
        <mxCell id="0" />
        <mxCell id="1" parent="0" />
        <mxCell id="Fi0Rnp3xEyIqlCMnKnA1-6" style="edgeStyle=orthogonalEdgeStyle;rounded=0;orthogonalLoop=1;jettySize=auto;html=1;exitX=1;exitY=0.5;exitDx=0;exitDy=0;fontSize=16;strokeWidth=3;" parent="1" source="Fi0Rnp3xEyIqlCMnKnA1-1" target="Fi0Rnp3xEyIqlCMnKnA1-2" edge="1">
          <mxGeometry relative="1" as="geometry" />
        </mxCell>
        <mxCell id="Fi0Rnp3xEyIqlCMnKnA1-1" value="&lt;font style=&quot;font-size: 16px;&quot;&gt;Descriptor&lt;/font&gt;" style="rounded=0;whiteSpace=wrap;html=1;" parent="1" vertex="1">
          <mxGeometry x="180" y="230" width="120" height="60" as="geometry" />
        </mxCell>
        <mxCell id="Fi0Rnp3xEyIqlCMnKnA1-7" style="edgeStyle=orthogonalEdgeStyle;rounded=0;orthogonalLoop=1;jettySize=auto;html=1;exitX=1;exitY=0.5;exitDx=0;exitDy=0;entryX=0;entryY=0.25;entryDx=0;entryDy=0;fontSize=16;strokeWidth=3;" parent="1" source="Fi0Rnp3xEyIqlCMnKnA1-2" target="Fi0Rnp3xEyIqlCMnKnA1-3" edge="1">
          <mxGeometry relative="1" as="geometry" />
        </mxCell>
        <mxCell id="Fi0Rnp3xEyIqlCMnKnA1-14" style="edgeStyle=orthogonalEdgeStyle;rounded=0;orthogonalLoop=1;jettySize=auto;html=1;exitX=0.5;exitY=1;exitDx=0;exitDy=0;entryX=0;entryY=0.75;entryDx=0;entryDy=0;fontSize=16;startArrow=none;startFill=0;" parent="1" source="Fi0Rnp3xEyIqlCMnKnA1-2" target="Fi0Rnp3xEyIqlCMnKnA1-1" edge="1">
          <mxGeometry relative="1" as="geometry">
            <Array as="points">
              <mxPoint x="450" y="330" />
              <mxPoint x="160" y="330" />
              <mxPoint x="160" y="275" />
            </Array>
          </mxGeometry>
        </mxCell>
        <mxCell id="Fi0Rnp3xEyIqlCMnKnA1-2" value="scheduler" style="whiteSpace=wrap;html=1;aspect=fixed;fontSize=16;" parent="1" vertex="1">
          <mxGeometry x="400" y="210" width="100" height="100" as="geometry" />
        </mxCell>
        <mxCell id="Fi0Rnp3xEyIqlCMnKnA1-8" style="edgeStyle=orthogonalEdgeStyle;rounded=0;orthogonalLoop=1;jettySize=auto;html=1;exitX=1;exitY=0.25;exitDx=0;exitDy=0;fontSize=16;shape=flexArrow;startArrow=none;startFill=0;" parent="1" source="Fi0Rnp3xEyIqlCMnKnA1-3" target="Fi0Rnp3xEyIqlCMnKnA1-9" edge="1">
          <mxGeometry relative="1" as="geometry">
            <mxPoint x="850" y="260" as="targetPoint" />
          </mxGeometry>
        </mxCell>
        <mxCell id="Fi0Rnp3xEyIqlCMnKnA1-10" style="edgeStyle=orthogonalEdgeStyle;shape=flexArrow;rounded=0;orthogonalLoop=1;jettySize=auto;html=1;fontSize=16;startArrow=none;startFill=0;entryX=0;entryY=0.5;entryDx=0;entryDy=0;" parent="1" source="Fi0Rnp3xEyIqlCMnKnA1-11" target="OGFmcYCz6MBP8gwipTdS-2" edge="1">
          <mxGeometry relative="1" as="geometry">
            <mxPoint x="420" y="358" as="sourcePoint" />
          </mxGeometry>
        </mxCell>
        <mxCell id="Fi0Rnp3xEyIqlCMnKnA1-13" style="edgeStyle=orthogonalEdgeStyle;shape=flexArrow;rounded=0;orthogonalLoop=1;jettySize=auto;html=1;exitX=1;exitY=0.75;exitDx=0;exitDy=0;fontSize=16;startArrow=none;startFill=0;" parent="1" source="Fi0Rnp3xEyIqlCMnKnA1-3" target="Fi0Rnp3xEyIqlCMnKnA1-12" edge="1">
          <mxGeometry relative="1" as="geometry" />
        </mxCell>
        <mxCell id="OGFmcYCz6MBP8gwipTdS-4" style="edgeStyle=orthogonalEdgeStyle;rounded=0;orthogonalLoop=1;jettySize=auto;html=1;exitX=0.5;exitY=1;exitDx=0;exitDy=0;entryX=0;entryY=0.75;entryDx=0;entryDy=0;fontSize=16;startArrow=none;startFill=0;" parent="1" source="Fi0Rnp3xEyIqlCMnKnA1-3" target="OGFmcYCz6MBP8gwipTdS-2" edge="1">
          <mxGeometry relative="1" as="geometry">
            <Array as="points">
              <mxPoint x="660" y="470" />
              <mxPoint x="270" y="470" />
              <mxPoint x="270" y="420" />
            </Array>
          </mxGeometry>
        </mxCell>
        <mxCell id="Fi0Rnp3xEyIqlCMnKnA1-3" value="CHI_Converter" style="rounded=0;whiteSpace=wrap;html=1;fontSize=16;" parent="1" vertex="1">
          <mxGeometry x="600" y="212" width="120" height="195" as="geometry" />
        </mxCell>
        <mxCell id="Fi0Rnp3xEyIqlCMnKnA1-5" style="edgeStyle=orthogonalEdgeStyle;rounded=0;orthogonalLoop=1;jettySize=auto;html=1;exitX=1;exitY=0.5;exitDx=0;exitDy=0;entryX=0;entryY=0.5;entryDx=0;entryDy=0;fontSize=16;strokeWidth=3;" parent="1" source="Fi0Rnp3xEyIqlCMnKnA1-4" target="Fi0Rnp3xEyIqlCMnKnA1-1" edge="1">
          <mxGeometry relative="1" as="geometry" />
        </mxCell>
        <mxCell id="Fi0Rnp3xEyIqlCMnKnA1-4" value="Proc" style="ellipse;whiteSpace=wrap;html=1;fontSize=16;" parent="1" vertex="1">
          <mxGeometry y="220" width="90" height="80" as="geometry" />
        </mxCell>
        <mxCell id="Fi0Rnp3xEyIqlCMnKnA1-9" value="CHI_READ" style="text;html=1;align=center;verticalAlign=middle;resizable=0;points=[];autosize=1;strokeColor=none;fillColor=none;fontSize=16;" parent="1" vertex="1">
          <mxGeometry x="860" y="245" width="100" height="30" as="geometry" />
        </mxCell>
        <mxCell id="Fi0Rnp3xEyIqlCMnKnA1-11" value="CHI_RSP" style="text;html=1;align=center;verticalAlign=middle;resizable=0;points=[];autosize=1;strokeColor=none;fillColor=none;fontSize=16;" parent="1" vertex="1">
          <mxGeometry x="160" y="385" width="90" height="30" as="geometry" />
        </mxCell>
        <mxCell id="Fi0Rnp3xEyIqlCMnKnA1-12" value="CHI_WRITE" style="text;html=1;align=center;verticalAlign=middle;resizable=0;points=[];autosize=1;strokeColor=none;fillColor=none;fontSize=16;" parent="1" vertex="1">
          <mxGeometry x="858" y="343" width="110" height="30" as="geometry" />
        </mxCell>
        <mxCell id="OGFmcYCz6MBP8gwipTdS-3" style="edgeStyle=orthogonalEdgeStyle;rounded=0;orthogonalLoop=1;jettySize=auto;html=1;exitX=1;exitY=0.5;exitDx=0;exitDy=0;entryX=0;entryY=0.75;entryDx=0;entryDy=0;fontSize=16;startArrow=none;startFill=0;" parent="1" source="OGFmcYCz6MBP8gwipTdS-2" target="Fi0Rnp3xEyIqlCMnKnA1-3" edge="1">
          <mxGeometry relative="1" as="geometry" />
        </mxCell>
        <mxCell id="OGFmcYCz6MBP8gwipTdS-2" value="barrel&lt;br&gt;shifter" style="whiteSpace=wrap;html=1;aspect=fixed;fontSize=16;" parent="1" vertex="1">
          <mxGeometry x="320" y="360" width="80" height="80" as="geometry" />
        </mxCell>
        <mxCell id="OGFmcYCz6MBP8gwipTdS-5" value="update" style="text;html=1;align=center;verticalAlign=middle;resizable=0;points=[];autosize=1;strokeColor=none;fillColor=none;fontSize=16;" parent="1" vertex="1">
          <mxGeometry x="300" y="304" width="70" height="30" as="geometry" />
        </mxCell>
        <mxCell id="OGFmcYCz6MBP8gwipTdS-6" value="Data" style="text;html=1;align=center;verticalAlign=middle;resizable=0;points=[];autosize=1;strokeColor=none;fillColor=none;fontSize=16;" parent="1" vertex="1">
          <mxGeometry x="100" y="230" width="60" height="30" as="geometry" />
        </mxCell>
        <mxCell id="OGFmcYCz6MBP8gwipTdS-7" value="Data" style="text;html=1;align=center;verticalAlign=middle;resizable=0;points=[];autosize=1;strokeColor=none;fillColor=none;fontSize=16;" parent="1" vertex="1">
          <mxGeometry x="310" y="230" width="60" height="30" as="geometry" />
        </mxCell>
        <mxCell id="OGFmcYCz6MBP8gwipTdS-8" value="shift" style="text;html=1;align=center;verticalAlign=middle;resizable=0;points=[];autosize=1;strokeColor=none;fillColor=none;fontSize=16;" parent="1" vertex="1">
          <mxGeometry x="470" y="440" width="50" height="30" as="geometry" />
        </mxCell>
      </root>
    </mxGraphModel>
  </diagram>
  <diagram id="hruI2gkUVKY8Dwmxga2u" name="NEXT STEP">
    <mxGraphModel dx="2389" dy="758" grid="1" gridSize="10" guides="1" tooltips="1" connect="1" arrows="1" fold="1" page="1" pageScale="1" pageWidth="827" pageHeight="1169" math="0" shadow="0">
      <root>
        <mxCell id="0" />
        <mxCell id="1" parent="0" />
        <mxCell id="7BvXzO7kzg-ZHpW3TdnX-19" value="" style="rounded=0;whiteSpace=wrap;html=1;fontSize=16;" parent="1" vertex="1">
          <mxGeometry x="170" y="140" width="140" height="280" as="geometry" />
        </mxCell>
        <mxCell id="7BvXzO7kzg-ZHpW3TdnX-1" style="edgeStyle=orthogonalEdgeStyle;rounded=0;orthogonalLoop=1;jettySize=auto;html=1;fontSize=16;strokeWidth=3;" parent="1" target="7BvXzO7kzg-ZHpW3TdnX-5" edge="1">
          <mxGeometry relative="1" as="geometry">
            <mxPoint x="310" y="260" as="sourcePoint" />
          </mxGeometry>
        </mxCell>
        <mxCell id="7BvXzO7kzg-ZHpW3TdnX-2" value="&lt;font style=&quot;font-size: 16px;&quot;&gt;Descriptor&lt;/font&gt;" style="rounded=0;whiteSpace=wrap;html=1;" parent="1" vertex="1">
          <mxGeometry x="180" y="230" width="120" height="60" as="geometry" />
        </mxCell>
        <mxCell id="7BvXzO7kzg-ZHpW3TdnX-3" style="edgeStyle=orthogonalEdgeStyle;rounded=0;orthogonalLoop=1;jettySize=auto;html=1;exitX=1;exitY=0.5;exitDx=0;exitDy=0;entryX=0;entryY=0.25;entryDx=0;entryDy=0;fontSize=16;strokeWidth=3;" parent="1" source="7BvXzO7kzg-ZHpW3TdnX-5" target="7BvXzO7kzg-ZHpW3TdnX-9" edge="1">
          <mxGeometry relative="1" as="geometry" />
        </mxCell>
        <mxCell id="7BvXzO7kzg-ZHpW3TdnX-4" style="edgeStyle=orthogonalEdgeStyle;rounded=0;orthogonalLoop=1;jettySize=auto;html=1;exitX=0.5;exitY=1;exitDx=0;exitDy=0;fontSize=16;startArrow=none;startFill=0;entryX=0;entryY=0.75;entryDx=0;entryDy=0;" parent="1" source="7BvXzO7kzg-ZHpW3TdnX-5" target="QyxQ0Puuvn4gFrPw1pc1-1" edge="1">
          <mxGeometry relative="1" as="geometry">
            <Array as="points">
              <mxPoint x="450" y="450" />
              <mxPoint x="20" y="450" />
              <mxPoint x="20" y="385" />
            </Array>
            <mxPoint x="410" y="410" as="targetPoint" />
          </mxGeometry>
        </mxCell>
        <mxCell id="7BvXzO7kzg-ZHpW3TdnX-5" value="scheduler" style="whiteSpace=wrap;html=1;aspect=fixed;fontSize=16;" parent="1" vertex="1">
          <mxGeometry x="400" y="210" width="100" height="100" as="geometry" />
        </mxCell>
        <mxCell id="7BvXzO7kzg-ZHpW3TdnX-6" style="edgeStyle=orthogonalEdgeStyle;rounded=0;orthogonalLoop=1;jettySize=auto;html=1;exitX=1;exitY=0.25;exitDx=0;exitDy=0;fontSize=16;shape=flexArrow;startArrow=none;startFill=0;" parent="1" source="7BvXzO7kzg-ZHpW3TdnX-9" target="7BvXzO7kzg-ZHpW3TdnX-12" edge="1">
          <mxGeometry relative="1" as="geometry">
            <mxPoint x="850" y="260" as="targetPoint" />
          </mxGeometry>
        </mxCell>
        <mxCell id="7BvXzO7kzg-ZHpW3TdnX-7" style="edgeStyle=orthogonalEdgeStyle;shape=flexArrow;rounded=0;orthogonalLoop=1;jettySize=auto;html=1;fontSize=16;startArrow=none;startFill=0;entryX=0;entryY=0.5;entryDx=0;entryDy=0;" parent="1" source="7BvXzO7kzg-ZHpW3TdnX-22" target="7BvXzO7kzg-ZHpW3TdnX-21" edge="1">
          <mxGeometry relative="1" as="geometry">
            <mxPoint x="520" y="545" as="sourcePoint" />
            <Array as="points">
              <mxPoint x="250" y="520" />
              <mxPoint x="250" y="520" />
            </Array>
          </mxGeometry>
        </mxCell>
        <mxCell id="7BvXzO7kzg-ZHpW3TdnX-8" style="edgeStyle=orthogonalEdgeStyle;shape=flexArrow;rounded=0;orthogonalLoop=1;jettySize=auto;html=1;exitX=1;exitY=0.75;exitDx=0;exitDy=0;fontSize=16;startArrow=none;startFill=0;" parent="1" source="7BvXzO7kzg-ZHpW3TdnX-9" target="7BvXzO7kzg-ZHpW3TdnX-14" edge="1">
          <mxGeometry relative="1" as="geometry" />
        </mxCell>
        <mxCell id="KMBDJNIJL_xD2Je5Fw8L-2" style="edgeStyle=orthogonalEdgeStyle;rounded=0;orthogonalLoop=1;jettySize=auto;html=1;exitX=0.5;exitY=1;exitDx=0;exitDy=0;entryX=-0.062;entryY=0.844;entryDx=0;entryDy=0;entryPerimeter=0;strokeWidth=1;fontSize=16;startArrow=none;startFill=0;" parent="1" source="7BvXzO7kzg-ZHpW3TdnX-9" target="7BvXzO7kzg-ZHpW3TdnX-21" edge="1">
          <mxGeometry relative="1" as="geometry">
            <Array as="points">
              <mxPoint x="670" y="610" />
              <mxPoint x="280" y="610" />
              <mxPoint x="280" y="548" />
            </Array>
          </mxGeometry>
        </mxCell>
        <mxCell id="QyxQ0Puuvn4gFrPw1pc1-2" style="edgeStyle=orthogonalEdgeStyle;rounded=0;orthogonalLoop=1;jettySize=auto;html=1;exitX=0.75;exitY=1;exitDx=0;exitDy=0;strokeWidth=1;fontSize=16;startArrow=none;startFill=0;entryX=0;entryY=0.25;entryDx=0;entryDy=0;" parent="1" source="7BvXzO7kzg-ZHpW3TdnX-9" target="QyxQ0Puuvn4gFrPw1pc1-1" edge="1">
          <mxGeometry relative="1" as="geometry">
            <mxPoint x="-20" y="420" as="targetPoint" />
            <Array as="points">
              <mxPoint x="700" y="650" />
              <mxPoint x="-20" y="650" />
              <mxPoint x="-20" y="355" />
            </Array>
          </mxGeometry>
        </mxCell>
        <mxCell id="7BvXzO7kzg-ZHpW3TdnX-9" value="CHI_Converter" style="rounded=0;whiteSpace=wrap;html=1;fontSize=16;" parent="1" vertex="1">
          <mxGeometry x="610" y="310" width="120" height="195" as="geometry" />
        </mxCell>
        <mxCell id="7BvXzO7kzg-ZHpW3TdnX-10" style="edgeStyle=orthogonalEdgeStyle;rounded=0;orthogonalLoop=1;jettySize=auto;html=1;exitX=1;exitY=0.5;exitDx=0;exitDy=0;fontSize=16;strokeWidth=3;" parent="1" source="7BvXzO7kzg-ZHpW3TdnX-11" edge="1">
          <mxGeometry relative="1" as="geometry">
            <mxPoint x="170" y="260" as="targetPoint" />
          </mxGeometry>
        </mxCell>
        <mxCell id="7BvXzO7kzg-ZHpW3TdnX-11" value="Proc" style="ellipse;whiteSpace=wrap;html=1;fontSize=16;" parent="1" vertex="1">
          <mxGeometry y="220" width="90" height="80" as="geometry" />
        </mxCell>
        <mxCell id="7BvXzO7kzg-ZHpW3TdnX-12" value="CHI_READ" style="text;html=1;align=center;verticalAlign=middle;resizable=0;points=[];autosize=1;strokeColor=none;fillColor=none;fontSize=16;" parent="1" vertex="1">
          <mxGeometry x="863" y="343" width="100" height="30" as="geometry" />
        </mxCell>
        <mxCell id="7BvXzO7kzg-ZHpW3TdnX-14" value="CHI_WRITE" style="text;html=1;align=center;verticalAlign=middle;resizable=0;points=[];autosize=1;strokeColor=none;fillColor=none;fontSize=16;" parent="1" vertex="1">
          <mxGeometry x="860" y="441" width="110" height="30" as="geometry" />
        </mxCell>
        <mxCell id="7BvXzO7kzg-ZHpW3TdnX-15" value="&lt;font style=&quot;font-size: 16px;&quot;&gt;Descriptor&lt;/font&gt;" style="rounded=0;whiteSpace=wrap;html=1;" parent="1" vertex="1">
          <mxGeometry x="180" y="160" width="120" height="60" as="geometry" />
        </mxCell>
        <mxCell id="7BvXzO7kzg-ZHpW3TdnX-16" value="&lt;font style=&quot;font-size: 16px;&quot;&gt;Descriptor&lt;/font&gt;" style="rounded=0;whiteSpace=wrap;html=1;" parent="1" vertex="1">
          <mxGeometry x="180" y="340" width="120" height="60" as="geometry" />
        </mxCell>
        <mxCell id="7BvXzO7kzg-ZHpW3TdnX-17" value="" style="endArrow=none;dashed=1;html=1;dashPattern=1 3;strokeWidth=2;rounded=0;fontSize=16;" parent="1" edge="1">
          <mxGeometry width="50" height="50" relative="1" as="geometry">
            <mxPoint x="240" y="330" as="sourcePoint" />
            <mxPoint x="240" y="300" as="targetPoint" />
          </mxGeometry>
        </mxCell>
        <mxCell id="7BvXzO7kzg-ZHpW3TdnX-20" value="BRAM" style="text;html=1;align=center;verticalAlign=middle;resizable=0;points=[];autosize=1;strokeColor=none;fillColor=none;fontSize=16;" parent="1" vertex="1">
          <mxGeometry x="205" y="110" width="70" height="30" as="geometry" />
        </mxCell>
        <mxCell id="7BvXzO7kzg-ZHpW3TdnX-23" style="edgeStyle=orthogonalEdgeStyle;rounded=0;orthogonalLoop=1;jettySize=auto;html=1;exitX=1;exitY=0.5;exitDx=0;exitDy=0;entryX=0;entryY=0.75;entryDx=0;entryDy=0;fontSize=16;startArrow=none;startFill=0;" parent="1" source="7BvXzO7kzg-ZHpW3TdnX-21" target="7BvXzO7kzg-ZHpW3TdnX-9" edge="1">
          <mxGeometry relative="1" as="geometry" />
        </mxCell>
        <mxCell id="7BvXzO7kzg-ZHpW3TdnX-21" value="barrel&lt;br&gt;shifter" style="whiteSpace=wrap;html=1;aspect=fixed;fontSize=16;" parent="1" vertex="1">
          <mxGeometry x="330" y="480" width="80" height="80" as="geometry" />
        </mxCell>
        <mxCell id="7BvXzO7kzg-ZHpW3TdnX-22" value="CHI_RSP" style="text;html=1;align=center;verticalAlign=middle;resizable=0;points=[];autosize=1;strokeColor=none;fillColor=none;fontSize=16;" parent="1" vertex="1">
          <mxGeometry x="130" y="505" width="90" height="30" as="geometry" />
        </mxCell>
        <mxCell id="KMBDJNIJL_xD2Je5Fw8L-1" value="shift" style="text;html=1;align=center;verticalAlign=middle;resizable=0;points=[];autosize=1;strokeColor=none;fillColor=none;fontSize=16;" parent="1" vertex="1">
          <mxGeometry x="360" y="585" width="50" height="30" as="geometry" />
        </mxCell>
        <mxCell id="KMBDJNIJL_xD2Je5Fw8L-4" value="update" style="text;html=1;align=center;verticalAlign=middle;resizable=0;points=[];autosize=1;strokeColor=none;fillColor=none;fontSize=16;" parent="1" vertex="1">
          <mxGeometry x="300" y="420" width="70" height="30" as="geometry" />
        </mxCell>
        <mxCell id="KMBDJNIJL_xD2Je5Fw8L-5" value="Data" style="text;html=1;align=center;verticalAlign=middle;resizable=0;points=[];autosize=1;strokeColor=none;fillColor=none;fontSize=16;" parent="1" vertex="1">
          <mxGeometry x="100" y="230" width="60" height="30" as="geometry" />
        </mxCell>
        <mxCell id="KMBDJNIJL_xD2Je5Fw8L-6" value="Data" style="text;html=1;align=center;verticalAlign=middle;resizable=0;points=[];autosize=1;strokeColor=none;fillColor=none;fontSize=16;" parent="1" vertex="1">
          <mxGeometry x="100" y="230" width="60" height="30" as="geometry" />
        </mxCell>
        <mxCell id="KMBDJNIJL_xD2Je5Fw8L-7" value="Data" style="text;html=1;align=center;verticalAlign=middle;resizable=0;points=[];autosize=1;strokeColor=none;fillColor=none;fontSize=16;" parent="1" vertex="1">
          <mxGeometry x="320" y="230" width="60" height="30" as="geometry" />
        </mxCell>
        <mxCell id="QyxQ0Puuvn4gFrPw1pc1-3" style="edgeStyle=orthogonalEdgeStyle;rounded=0;orthogonalLoop=1;jettySize=auto;html=1;exitX=1;exitY=0.5;exitDx=0;exitDy=0;entryX=-0.007;entryY=0.823;entryDx=0;entryDy=0;entryPerimeter=0;strokeWidth=1;fontSize=16;startArrow=none;startFill=0;" parent="1" source="QyxQ0Puuvn4gFrPw1pc1-1" target="7BvXzO7kzg-ZHpW3TdnX-19" edge="1">
          <mxGeometry relative="1" as="geometry" />
        </mxCell>
        <mxCell id="QyxQ0Puuvn4gFrPw1pc1-1" value="Arbiter" style="rounded=0;whiteSpace=wrap;html=1;fontSize=16;" parent="1" vertex="1">
          <mxGeometry x="52" y="340" width="70" height="60" as="geometry" />
        </mxCell>
        <mxCell id="QyxQ0Puuvn4gFrPw1pc1-4" value="update" style="text;html=1;align=center;verticalAlign=middle;resizable=0;points=[];autosize=1;strokeColor=none;fillColor=none;fontSize=16;" parent="1" vertex="1">
          <mxGeometry x="100" y="615" width="70" height="30" as="geometry" />
        </mxCell>
      </root>
    </mxGraphModel>
  </diagram>
</mxfile>
